# xmcd
# 
# Track frame offsets:
#     150
#     16094
#     34170
#     50115
# 
# Disc length: 907
# 
# Revision: 0
# Processed by: cddbd v1.5.2PL0 Copyright (c) Steve Scherf et al.
# Submitted via: fre:ac v1.0.31
# 
DISCID=2b038904
DTITLE=mirage2 - 咲いて2
DYEAR=2020
DGENRE=JPop
TTITLE0=咲いて2
TTITLE1=Dear ママ
TTITLE2=咲いて2 (カラオケ)
TTITLE3=Dear ママ (カラオケ)
EXTD=
EXTT0=
EXTT1=
EXTT2=
EXTT3=
PLAYORDER=
